<svg width="421" height="77" viewBox="0 0 421 77" fill="none" xmlns="http://www.w3.org/2000/svg">
<path d="M4.59091 62V15.4545H22.0455C25.6212 15.4545 28.6212 16.1212 31.0455 17.4545C33.4849 18.7879 35.3258 20.6212 36.5682 22.9545C37.8258 25.2727 38.4545 27.9091 38.4545 30.8636C38.4545 33.8485 37.8258 36.5 36.5682 38.8182C35.3106 41.1364 33.4545 42.9621 31 44.2955C28.5455 45.6136 25.5227 46.2727 21.9318 46.2727H10.3636V39.3409H20.7955C22.8864 39.3409 24.5985 38.9773 25.9318 38.25C27.2652 37.5227 28.25 36.5227 28.8864 35.25C29.5379 33.9773 29.8636 32.5152 29.8636 30.8636C29.8636 29.2121 29.5379 27.7576 28.8864 26.5C28.25 25.2424 27.2576 24.2652 25.9091 23.5682C24.5758 22.8561 22.8561 22.5 20.75 22.5H13.0227V62H4.59091ZM45.4148 62V27.0909H53.642V62H45.4148ZM49.5511 22.1364C48.2481 22.1364 47.1269 21.7045 46.1875 20.8409C45.2481 19.9621 44.7784 18.9091 44.7784 17.6818C44.7784 16.4394 45.2481 15.3864 46.1875 14.5227C47.1269 13.6439 48.2481 13.2045 49.5511 13.2045C50.8693 13.2045 51.9905 13.6439 52.9148 14.5227C53.8542 15.3864 54.3239 16.4394 54.3239 17.6818C54.3239 18.9091 53.8542 19.9621 52.9148 20.8409C51.9905 21.7045 50.8693 22.1364 49.5511 22.1364ZM61.6477 62V56.7727L79.6477 34.2045V33.9091H62.2386V27.0909H89.7159V32.7045L72.5795 54.8864V55.1818H90.3068V62H61.6477ZM97.5852 62V56.7727L115.585 34.2045V33.9091H98.1761V27.0909H125.653V32.7045L108.517 54.8864V55.1818H126.244V62H97.5852ZM144.023 62.7045C141.811 62.7045 139.818 62.3106 138.045 61.5227C136.288 60.7197 134.894 59.5379 133.864 57.9773C132.848 56.4167 132.341 54.4924 132.341 52.2045C132.341 50.2348 132.705 48.6061 133.432 47.3182C134.159 46.0303 135.152 45 136.409 44.2273C137.667 43.4545 139.083 42.8712 140.659 42.4773C142.25 42.0682 143.894 41.7727 145.591 41.5909C147.636 41.3788 149.295 41.1894 150.568 41.0227C151.841 40.8409 152.765 40.5682 153.341 40.2045C153.932 39.8258 154.227 39.2424 154.227 38.4545V38.3182C154.227 36.6061 153.72 35.2803 152.705 34.3409C151.689 33.4015 150.227 32.9318 148.318 32.9318C146.303 32.9318 144.705 33.3712 143.523 34.25C142.356 35.1288 141.568 36.1667 141.159 37.3636L133.477 36.2727C134.083 34.1515 135.083 32.3788 136.477 30.9545C137.871 29.5151 139.576 28.4394 141.591 27.7273C143.606 27 145.833 26.6364 148.273 26.6364C149.955 26.6364 151.629 26.8333 153.295 27.2273C154.962 27.6212 156.485 28.2727 157.864 29.1818C159.242 30.0758 160.348 31.2955 161.182 32.8409C162.03 34.3864 162.455 36.3182 162.455 38.6364V62H154.545V57.2045H154.273C153.773 58.1742 153.068 59.0833 152.159 59.9318C151.265 60.7652 150.136 61.4394 148.773 61.9545C147.424 62.4545 145.841 62.7045 144.023 62.7045ZM146.159 56.6591C147.811 56.6591 149.242 56.3333 150.455 55.6818C151.667 55.0152 152.598 54.1364 153.25 53.0455C153.917 51.9545 154.25 50.7652 154.25 49.4773V45.3636C153.992 45.5758 153.553 45.7727 152.932 45.9545C152.326 46.1364 151.644 46.2955 150.886 46.4318C150.129 46.5682 149.379 46.6894 148.636 46.7955C147.894 46.9015 147.25 46.9924 146.705 47.0682C145.477 47.2348 144.379 47.5076 143.409 47.8864C142.439 48.2652 141.674 48.7955 141.114 49.4773C140.553 50.1439 140.273 51.0076 140.273 52.0682C140.273 53.5833 140.826 54.7273 141.932 55.5C143.038 56.2727 144.447 56.6591 146.159 56.6591ZM170.727 62V27.0909H178.705V32.9091H179.068C179.705 30.8939 180.795 29.3409 182.341 28.25C183.902 27.1439 185.682 26.5909 187.682 26.5909C188.136 26.5909 188.644 26.6136 189.205 26.6591C189.78 26.6894 190.258 26.7424 190.636 26.8182V34.3864C190.288 34.2652 189.735 34.1591 188.977 34.0682C188.235 33.9621 187.515 33.9091 186.818 33.9091C185.318 33.9091 183.97 34.2348 182.773 34.8864C181.591 35.5227 180.659 36.4091 179.977 37.5455C179.295 38.6818 178.955 39.9924 178.955 41.4773V62H170.727ZM196.102 62V27.0909H204.33V62H196.102ZM200.239 22.1364C198.936 22.1364 197.814 21.7045 196.875 20.8409C195.936 19.9621 195.466 18.9091 195.466 17.6818C195.466 16.4394 195.936 15.3864 196.875 14.5227C197.814 13.6439 198.936 13.2045 200.239 13.2045C201.557 13.2045 202.678 13.6439 203.602 14.5227C204.542 15.3864 205.011 16.4394 205.011 17.6818C205.011 18.9091 204.542 19.9621 203.602 20.8409C202.678 21.7045 201.557 22.1364 200.239 22.1364ZM222.835 62.7045C220.623 62.7045 218.631 62.3106 216.858 61.5227C215.1 60.7197 213.706 59.5379 212.676 57.9773C211.661 56.4167 211.153 54.4924 211.153 52.2045C211.153 50.2348 211.517 48.6061 212.244 47.3182C212.972 46.0303 213.964 45 215.222 44.2273C216.479 43.4545 217.896 42.8712 219.472 42.4773C221.063 42.0682 222.706 41.7727 224.403 41.5909C226.449 41.3788 228.108 41.1894 229.381 41.0227C230.653 40.8409 231.578 40.5682 232.153 40.2045C232.744 39.8258 233.04 39.2424 233.04 38.4545V38.3182C233.04 36.6061 232.532 35.2803 231.517 34.3409C230.502 33.4015 229.04 32.9318 227.131 32.9318C225.116 32.9318 223.517 33.3712 222.335 34.25C221.169 35.1288 220.381 36.1667 219.972 37.3636L212.29 36.2727C212.896 34.1515 213.896 32.3788 215.29 30.9545C216.684 29.5151 218.388 28.4394 220.403 27.7273C222.419 27 224.646 26.6364 227.085 26.6364C228.767 26.6364 230.441 26.8333 232.108 27.2273C233.775 27.6212 235.297 28.2727 236.676 29.1818C238.055 30.0758 239.161 31.2955 239.994 32.8409C240.843 34.3864 241.267 36.3182 241.267 38.6364V62H233.358V57.2045H233.085C232.585 58.1742 231.881 59.0833 230.972 59.9318C230.078 60.7652 228.949 61.4394 227.585 61.9545C226.237 62.4545 224.653 62.7045 222.835 62.7045ZM224.972 56.6591C226.623 56.6591 228.055 56.3333 229.267 55.6818C230.479 55.0152 231.411 54.1364 232.062 53.0455C232.729 51.9545 233.062 50.7652 233.062 49.4773V45.3636C232.805 45.5758 232.366 45.7727 231.744 45.9545C231.138 46.1364 230.456 46.2955 229.699 46.4318C228.941 46.5682 228.191 46.6894 227.449 46.7955C226.706 46.9015 226.063 46.9924 225.517 47.0682C224.29 47.2348 223.191 47.5076 222.222 47.8864C221.252 48.2652 220.487 48.7955 219.926 49.4773C219.366 50.1439 219.085 51.0076 219.085 52.0682C219.085 53.5833 219.638 54.7273 220.744 55.5C221.85 56.2727 223.259 56.6591 224.972 56.6591Z" fill="#E5E5E5"/>
<path d="M262.682 29.4091C262.53 27.7424 261.856 26.447 260.659 25.5227C259.477 24.5833 257.788 24.1136 255.591 24.1136C254.136 24.1136 252.924 24.303 251.955 24.6818C250.985 25.0606 250.258 25.5833 249.773 26.25C249.288 26.9015 249.038 27.6515 249.023 28.5C248.992 29.197 249.129 29.8106 249.432 30.3409C249.75 30.8712 250.205 31.3409 250.795 31.75C251.402 32.1439 252.129 32.4924 252.977 32.7955C253.826 33.0985 254.78 33.3636 255.841 33.5909L259.841 34.5C262.144 35 264.174 35.6667 265.932 36.5C267.705 37.3333 269.189 38.3258 270.386 39.4773C271.598 40.6288 272.515 41.9545 273.136 43.4545C273.758 44.9545 274.076 46.6364 274.091 48.5C274.076 51.4394 273.333 53.9621 271.864 56.0682C270.394 58.1742 268.28 59.7879 265.523 60.9091C262.78 62.0303 259.47 62.5909 255.591 62.5909C251.697 62.5909 248.303 62.0076 245.409 60.8409C242.515 59.6742 240.265 57.9015 238.659 55.5227C237.053 53.1439 236.227 50.1364 236.182 46.5H246.955C247.045 48 247.447 49.25 248.159 50.25C248.871 51.25 249.848 52.0076 251.091 52.5227C252.348 53.0379 253.803 53.2955 255.455 53.2955C256.97 53.2955 258.258 53.0909 259.318 52.6818C260.394 52.2727 261.22 51.7045 261.795 50.9773C262.371 50.25 262.667 49.4167 262.682 48.4773C262.667 47.5985 262.394 46.8485 261.864 46.2273C261.333 45.5909 260.515 45.0455 259.409 44.5909C258.318 44.1212 256.924 43.6894 255.227 43.2955L250.364 42.1591C246.333 41.2348 243.159 39.7424 240.841 37.6818C238.523 35.6061 237.371 32.803 237.386 29.2727C237.371 26.3939 238.144 23.8712 239.705 21.7045C241.265 19.5379 243.424 17.8485 246.182 16.6364C248.939 15.4242 252.083 14.8182 255.614 14.8182C259.22 14.8182 262.348 15.4318 265 16.6591C267.667 17.8712 269.735 19.5758 271.205 21.7727C272.674 23.9697 273.424 26.5151 273.455 29.4091H262.682ZM293.508 62.6591C289.842 62.6591 286.69 61.9091 284.054 60.4091C281.432 58.8939 279.41 56.7879 277.985 54.0909C276.576 51.3788 275.872 48.2348 275.872 44.6591C275.872 41.0682 276.576 37.9242 277.985 35.2273C279.41 32.5152 281.432 30.4091 284.054 28.9091C286.69 27.3939 289.842 26.6364 293.508 26.6364C297.175 26.6364 300.319 27.3939 302.94 28.9091C305.576 30.4091 307.599 32.5152 309.008 35.2273C310.432 37.9242 311.145 41.0682 311.145 44.6591C311.145 48.2348 310.432 51.3788 309.008 54.0909C307.599 56.7879 305.576 58.8939 302.94 60.4091C300.319 61.9091 297.175 62.6591 293.508 62.6591ZM293.576 54.2727C294.91 54.2727 296.038 53.8636 296.963 53.0455C297.887 52.2273 298.592 51.0909 299.076 49.6364C299.576 48.1818 299.826 46.5 299.826 44.5909C299.826 42.6515 299.576 40.9545 299.076 39.5C298.592 38.0455 297.887 36.9091 296.963 36.0909C296.038 35.2727 294.91 34.8636 293.576 34.8636C292.198 34.8636 291.031 35.2727 290.076 36.0909C289.137 36.9091 288.417 38.0455 287.917 39.5C287.432 40.9545 287.19 42.6515 287.19 44.5909C287.19 46.5 287.432 48.1818 287.917 49.6364C288.417 51.0909 289.137 52.2273 290.076 53.0455C291.031 53.8636 292.198 54.2727 293.576 54.2727ZM336.8 46.9318V27.0909H347.891V62H337.3V55.5H336.937C336.164 57.6364 334.846 59.3333 332.982 60.5909C331.134 61.8333 328.899 62.4545 326.278 62.4545C323.899 62.4545 321.808 61.9091 320.005 60.8182C318.202 59.7273 316.8 58.2045 315.8 56.25C314.8 54.2803 314.293 51.9773 314.278 49.3409V27.0909H325.391V47.1591C325.407 49.053 325.907 50.5455 326.891 51.6364C327.876 52.7273 329.217 53.2727 330.914 53.2727C332.02 53.2727 333.013 53.0303 333.891 52.5455C334.785 52.0455 335.49 51.3258 336.005 50.3864C336.535 49.4318 336.8 48.2803 336.8 46.9318ZM382.882 37.75L372.678 38.0227C372.572 37.2955 372.284 36.6515 371.814 36.0909C371.345 35.5152 370.731 35.0682 369.973 34.75C369.231 34.4167 368.367 34.25 367.382 34.25C366.095 34.25 364.996 34.5076 364.087 35.0227C363.193 35.5379 362.754 36.2348 362.769 37.1136C362.754 37.7955 363.026 38.3864 363.587 38.8864C364.163 39.3864 365.186 39.7879 366.655 40.0909L373.382 41.3636C376.867 42.0303 379.458 43.1364 381.155 44.6818C382.867 46.2273 383.731 48.2727 383.746 50.8182C383.731 53.2121 383.019 55.2955 381.61 57.0682C380.216 58.8409 378.307 60.2197 375.882 61.2045C373.458 62.1742 370.686 62.6591 367.564 62.6591C362.579 62.6591 358.648 61.6364 355.769 59.5909C352.905 57.5303 351.269 54.7727 350.86 51.3182L361.837 51.0455C362.079 52.3182 362.708 53.2879 363.723 53.9545C364.739 54.6212 366.034 54.9545 367.61 54.9545C369.034 54.9545 370.193 54.6894 371.087 54.1591C371.981 53.6288 372.436 52.9242 372.451 52.0455C372.436 51.2576 372.087 50.6288 371.405 50.1591C370.723 49.6742 369.655 49.2955 368.201 49.0227L362.11 47.8636C358.61 47.2273 356.004 46.053 354.292 44.3409C352.579 42.6136 351.731 40.4167 351.746 37.75C351.731 35.4167 352.352 33.4242 353.61 31.7727C354.867 30.1061 356.655 28.8333 358.973 27.9545C361.292 27.0758 364.026 26.6364 367.178 26.6364C371.905 26.6364 375.633 27.6288 378.36 29.6136C381.087 31.5833 382.595 34.2955 382.882 37.75ZM396.499 62.5909C394.271 62.5909 392.294 62.2197 390.567 61.4773C388.855 60.7197 387.499 59.5833 386.499 58.0682C385.514 56.5379 385.021 54.6212 385.021 52.3182C385.021 50.3788 385.362 48.7424 386.044 47.4091C386.726 46.0758 387.665 44.9924 388.862 44.1591C390.059 43.3258 391.438 42.697 392.999 42.2727C394.559 41.8333 396.226 41.5379 397.999 41.3864C399.983 41.2045 401.582 41.0152 402.794 40.8182C404.006 40.6061 404.885 40.3106 405.43 39.9318C405.991 39.5379 406.271 38.9848 406.271 38.2727V38.1591C406.271 36.9924 405.87 36.0909 405.067 35.4545C404.264 34.8182 403.18 34.5 401.817 34.5C400.347 34.5 399.165 34.8182 398.271 35.4545C397.377 36.0909 396.809 36.9697 396.567 38.0909L386.317 37.7273C386.62 35.6061 387.4 33.7121 388.658 32.0455C389.93 30.3636 391.673 29.0455 393.885 28.0909C396.112 27.1212 398.787 26.6364 401.908 26.6364C404.135 26.6364 406.188 26.9015 408.067 27.4318C409.946 27.947 411.582 28.7045 412.976 29.7045C414.37 30.6894 415.446 31.9015 416.203 33.3409C416.976 34.7803 417.362 36.4242 417.362 38.2727V62H406.908V57.1364H406.635C406.014 58.3182 405.218 59.3182 404.249 60.1364C403.294 60.9545 402.165 61.5682 400.862 61.9773C399.574 62.3864 398.12 62.5909 396.499 62.5909ZM399.93 55.3182C401.127 55.3182 402.203 55.0758 403.158 54.5909C404.127 54.1061 404.9 53.4394 405.476 52.5909C406.052 51.7273 406.34 50.7273 406.34 49.5909V46.2727C406.021 46.4394 405.635 46.5909 405.18 46.7273C404.741 46.8636 404.256 46.9924 403.726 47.1136C403.196 47.2348 402.65 47.3409 402.09 47.4318C401.529 47.5227 400.991 47.6061 400.476 47.6818C399.43 47.8485 398.537 48.1061 397.794 48.4545C397.067 48.803 396.506 49.2576 396.112 49.8182C395.733 50.3636 395.544 51.0152 395.544 51.7727C395.544 52.9242 395.953 53.803 396.771 54.4091C397.605 55.0152 398.658 55.3182 399.93 55.3182Z" fill="#E11138"/>
</svg>
